<mxfile host="app.diagrams.net" modified="2024-05-22T20:26:49.317Z" agent="Mozilla/5.0 (Windows NT 10.0; Win64; x64) AppleWebKit/537.36 (KHTML, like Gecko) Chrome/124.0.0.0 Safari/537.36" version="24.2.5" etag="88mOJByGR9KFa_OjHe9R" type="github">
  <diagram name="Page-1" id="sw3fMiHSHSXHJpbco0qD">
    <mxGraphModel>
      <root>
        <mxCell id="0" />
        <mxCell id="1" parent="0" />
      </root>
    </mxGraphModel>
  </diagram>
</mxfile>
